<svg xmlns="http://www.w3.org/2000/svg" width="27.737" height="30.175" viewBox="0 0 27.737 30.175"><defs><style>.a{fill:#fff;}</style></defs><path class="a" d="M4.606,29.157V20.1a12.07,12.07,0,0,1,24.14,0v9.052h1.509v3.017H3.1V29.157Zm3.017,0h18.1V20.1a9.052,9.052,0,0,0-18.1,0ZM15.168,2h3.017V6.526H15.168ZM28.411,6.237,30.545,8.37l-3.2,3.2L25.211,9.437l3.2-3.2ZM2.808,8.37,4.941,6.237l3.2,3.2L6.01,11.571ZM9.133,20.1a7.544,7.544,0,0,1,7.544-7.544v3.017A4.526,4.526,0,0,0,12.15,20.1Z" transform="translate(-2.808 -2)"/></svg>