<svg xmlns="http://www.w3.org/2000/svg" xmlns:xlink="http://www.w3.org/1999/xlink" width="214.751" height="42.163" viewBox="0 0 214.751 42.163">
  <defs>
    <linearGradient id="linear-gradient" x1="0.055" y1="-1.324" x2="0.213" y2="2.75" gradientUnits="objectBoundingBox">
      <stop offset="0" stop-color="#ff9173"/>
      <stop offset="0.999" stop-color="#ed3979"/>
    </linearGradient>
    <linearGradient id="linear-gradient-2" x1="1.527" y1="-0.891" x2="1.857" y2="1.103" xlink:href="#linear-gradient"/>
    <linearGradient id="linear-gradient-3" x1="-0.601" y1="0.091" x2="-0.445" y2="4.393" xlink:href="#linear-gradient"/>
    <linearGradient id="linear-gradient-4" x1="2.654" y1="-0.898" x2="2.966" y2="1.135" xlink:href="#linear-gradient"/>
    <linearGradient id="linear-gradient-5" x1="-1.794" y1="0.843" x2="-1.483" y2="2.874" xlink:href="#linear-gradient"/>
    <linearGradient id="linear-gradient-6" x1="0.365" y1="-1.498" x2="0.954" y2="6.181" xlink:href="#linear-gradient"/>
    <linearGradient id="linear-gradient-7" x1="1.519" y1="-1.328" x2="1.674" y2="2.962" xlink:href="#linear-gradient"/>
    <linearGradient id="linear-gradient-8" x1="-0.68" y1="0.855" x2="-0.35" y2="2.849" xlink:href="#linear-gradient"/>
    <linearGradient id="linear-gradient-9" x1="0.862" y1="0.203" x2="1.02" y2="4.264" xlink:href="#linear-gradient"/>
  </defs>
  <g id="Group_4063" data-name="Group 4063" transform="translate(-31.421 -27.926)">
    <g id="Group_3204" data-name="Group 3204" transform="translate(-30.496 18.295)">
      <path id="Path_50993" data-name="Path 50993" d="M5.952.372A7.1,7.1,0,0,0,10.6-1.674h.124L11.036,0h2.976V-9.021c0-4.247-1.922-6.6-5.7-6.6A11.906,11.906,0,0,0,2.046-13.64l1.3,2.418a8.579,8.579,0,0,1,4.278-1.426c2.046,0,2.666,1.3,2.728,2.852-6.262.682-8.928,2.356-8.928,5.7A4.28,4.28,0,0,0,5.952.372ZM7.068-2.542c-1.24,0-2.108-.5-2.108-1.8,0-1.55,1.24-2.48,5.394-2.976v3.224A4.542,4.542,0,0,1,7.068-2.542ZM20.739.372A4.346,4.346,0,0,0,22.661.031l-.434-2.7a1.913,1.913,0,0,1-.558.062c-.372,0-.775-.31-.775-1.209V-21.886H17.2V-4C17.2-1.3,18.166.372,20.739.372Zm9.3,0A7.723,7.723,0,0,0,33.2-.279L32.55-2.852a4.1,4.1,0,0,1-1.581.31c-1.426,0-2.139-.868-2.139-2.635v-7.161h3.875v-2.914H28.83v-4.743H25.792l-.434,4.743L23-15.066v2.728h2.17v7.161C25.172-1.86,26.474.372,30.039.372ZM35.185,0h3.689V-7.409h2.852c4.371,0,7.75-2.046,7.75-6.572,0-4.712-3.379-6.293-7.874-6.293H35.185Zm3.689-10.354v-6.975h2.449c2.945,0,4.5.868,4.5,3.348,0,2.449-1.4,3.627-4.371,3.627ZM54.436.372a7.1,7.1,0,0,0,4.65-2.046h.124L59.52,0H62.5V-9.021c0-4.247-1.922-6.6-5.7-6.6A11.906,11.906,0,0,0,50.53-13.64l1.3,2.418a8.579,8.579,0,0,1,4.278-1.426c2.046,0,2.666,1.3,2.728,2.852-6.262.682-8.928,2.356-8.928,5.7A4.28,4.28,0,0,0,54.436.372Zm1.116-2.914c-1.24,0-2.108-.5-2.108-1.8,0-1.55,1.24-2.48,5.394-2.976v3.224A4.542,4.542,0,0,1,55.552-2.542ZM66.774,6.231c3.348,0,4.96-2.108,6.231-5.58l5.487-15.9H74.958L72.726-7.843c-.372,1.395-.775,2.883-1.147,4.309h-.124c-.434-1.457-.868-2.976-1.333-4.309l-2.573-7.409h-3.72L69.812-.217l-.279.961c-.5,1.488-1.426,2.542-3.007,2.542a3.466,3.466,0,0,1-1.054-.155L64.759,5.89A5.469,5.469,0,0,0,66.774,6.231Z" transform="translate(105.617 39.705)" fill="#fff"/>
      <g id="_1420198" data-name=" 1420198" transform="matrix(0.914, -0.407, 0.407, 0.914, 57.292, 20.867)">
        <path id="Path_43299" data-name="Path 43299" d="M15.658,6.985C13.206,3.475,10.273,1.244,7.009.4A13.854,13.854,0,0,0,1.162.232C.692.313.16.421.01.466c-.023.006,0,.09.037.181A.335.335,0,0,1,.082.911a.435.435,0,0,0,.009.244A13.091,13.091,0,0,0,2.027,3.841,12.538,12.538,0,0,0,5.622,6.552a18.635,18.635,0,0,0,2.148.86c.121.029.389.1.6.152a14.319,14.319,0,0,0,1.494.291A1.393,1.393,0,0,1,10.1,7.9a.618.618,0,0,0,.19.026c.074,0,.264.021.416.039s.318.032.364.032a2.018,2.018,0,0,1,.549.034.273.273,0,0,0,.146,0,.288.288,0,0,1,.149,0,1.081,1.081,0,0,0,.31.012,1.427,1.427,0,0,1,.3.006.163.163,0,0,0,.108-.015.184.184,0,0,1,.132,0,.186.186,0,0,0,.131,0,.523.523,0,0,1,.195,0c.068.018.13.012.137-.006s.035-.022.059-.011a.909.909,0,0,0,.438-.04.153.153,0,0,1,.138,0,.13.13,0,0,0,.129-.006c.027-.023.054-.027.068-.012s.061.014.115-.012a.248.248,0,0,1,.175-.006.122.122,0,0,0,.121-.009.111.111,0,0,1,.112-.013.523.523,0,0,0,.233,0c.092-.018.155-.038.137-.045a3.928,3.928,0,0,1,.839-.144,3.282,3.282,0,0,0,.331-.063S15.914,7.355,15.658,6.985Z" transform="translate(22.429 20.372)" fill="url(#linear-gradient)"/>
        <path id="Path_43300" data-name="Path 43300" d="M7.269,16.334c.875-4.5.527-7.982-1.1-11.054A13.322,13.322,0,0,0,4.774,3.26,13.054,13.054,0,0,0,2.368.969C1.938.648.959-.011.928,0a1.659,1.659,0,0,0-.1.283,2.889,2.889,0,0,1-.209.5A3.946,3.946,0,0,0,.266,2.052,12.587,12.587,0,0,0,1.6,10.765,13.134,13.134,0,0,0,3.19,13.046,18.917,18.917,0,0,0,5.9,15.7c.39.312.486.363.711.4a1.376,1.376,0,0,1,.586.336C7.237,16.475,7.244,16.466,7.269,16.334Z" transform="translate(20.008 22.398)" fill="url(#linear-gradient-2)"/>
        <path id="Path_43301" data-name="Path 43301" d="M16.4.488c-.074-.033-.975-.2-1.451-.264a16.2,16.2,0,0,0-8.3.709A13.244,13.244,0,0,0,.406,6.108a6.786,6.786,0,0,0-.372.6c-.053.119-.048.138.045.209a1.961,1.961,0,0,0,.772.268c.21.047.462.1.563.133a2.867,2.867,0,0,0,.31.058c.071.011.269.035.442.066s.37.056.434.063a2.223,2.223,0,0,1,.254.033.5.5,0,0,0,.184,0,.245.245,0,0,1,.15.021.284.284,0,0,0,.174.015.239.239,0,0,1,.157.007A.346.346,0,0,0,3.7,7.6a.274.274,0,0,1,.142,0,.756.756,0,0,0,.224.016.969.969,0,0,1,.217.013.043.043,0,0,0,.058-.016c.008-.018.043-.023.079-.007a.448.448,0,0,0,.2,0,.464.464,0,0,1,.193,0,.109.109,0,0,0,.1-.017.133.133,0,0,1,.133,0,.132.132,0,0,0,.132,0,.11.11,0,0,1,.107-.015.11.11,0,0,0,.108-.015A.107.107,0,0,1,5.5,7.538a.235.235,0,0,0,.146,0,.187.187,0,0,1,.113-.013.039.039,0,0,0,.052-.014c.014-.032.154-.032.226-.009a.086.086,0,0,0,.069-.011,2.148,2.148,0,0,1,.313-.071,13.344,13.344,0,0,0,5.118-2.031A19.33,19.33,0,0,0,16.155.9C16.392.583,16.435.505,16.4.488Z" transform="translate(22.483 11.131)" fill="url(#linear-gradient-3)"/>
        <path id="Path_43302" data-name="Path 43302" d="M7.489,8a13.692,13.692,0,0,0,.4-7.053C7.831.6,7.76.254,7.734.161L7.684,0,7.216.267A14.282,14.282,0,0,0,2.4,4.616c-.226.337-.672,1.093-.829,1.409a.52.52,0,0,1-.132.2,5.863,5.863,0,0,0-.524,1.2,16.586,16.586,0,0,0-.8,7.653c.044.461.1.628.247.724a.379.379,0,0,1,.093.2c.018.083.048.147.07.145.062-.008,1.151-.782,1.636-1.163a16.872,16.872,0,0,0,4.4-4.936C6.753,9.7,7.391,8.3,7.489,8Z" transform="translate(10.331 22.31)" fill="url(#linear-gradient-4)"/>
        <path id="Path_43303" data-name="Path 43303" d="M7.411,8.743A15.435,15.435,0,0,0,8.2,3.963,23.708,23.708,0,0,0,7.928.336L7.872,0,7.591.186A20.639,20.639,0,0,0,5.9,1.423a16.722,16.722,0,0,0-3.808,4.17c-.13.207-.257.407-.282.444a3.394,3.394,0,0,0-.167.337c-.08.17-.136.259-.151.235A12.339,12.339,0,0,0,.644,8.546,13.118,13.118,0,0,0,.1,14.255c.132,1.148.227,1.5.444,1.64a.292.292,0,0,1,.1.158l.026.113.111-.052c.06-.032.319-.178.573-.325a13.957,13.957,0,0,0,4.827-4.523,9.505,9.505,0,0,0,.738-1.417C7.166,9.322,7.384,8.823,7.411,8.743Z" transform="translate(20.242 0.363)" fill="url(#linear-gradient-5)"/>
        <path id="Path_43304" data-name="Path 43304" d="M4.314,2.4a2.113,2.113,0,0,0-.128-1.07,2.047,2.047,0,0,0-3.046-1A2.5,2.5,0,0,0,.21,1.426a1.958,1.958,0,0,0,.867,2.629h0l.088.042a1.713,1.713,0,0,0,.746.147.151.151,0,0,1,.136.007.18.18,0,0,0,.125.02,1.308,1.308,0,0,1,.3-.073,2.351,2.351,0,0,0,1.364-.747A2.546,2.546,0,0,0,4.314,2.4Z" transform="translate(17.222 17.305)" fill="url(#linear-gradient-6)"/>
        <path id="Path_43305" data-name="Path 43305" d="M16.315.642A13.2,13.2,0,0,0,5.387,1.868a17,17,0,0,0-3.8,3.206A16.649,16.649,0,0,0,0,7.063a2.985,2.985,0,0,0,.755.269c.132.016.315.039.413.054s.25.044.34.068.164.031.17.017.082-.005.17.017a.665.665,0,0,0,.209.03,2.178,2.178,0,0,1,.344.027,4.461,4.461,0,0,0,.709.042.786.786,0,0,1,.218.03.306.306,0,0,0,.157.007.284.284,0,0,1,.15,0,.713.713,0,0,0,.222.019,5.189,5.189,0,0,1,.769,0,.038.038,0,0,0,.049-.016c.008-.018.068-.02.133-.008a.215.215,0,0,0,.153-.012.147.147,0,0,1,.127,0,.281.281,0,0,0,.167,0,.239.239,0,0,1,.146,0A.106.106,0,0,0,5.515,7.6a.117.117,0,0,1,.113-.013.106.106,0,0,0,.112-.013.11.11,0,0,1,.108-.015.232.232,0,0,0,.143,0A.19.19,0,0,1,6.1,7.549a.193.193,0,0,0,.1-.006,1.688,1.688,0,0,1,.27-.04.538.538,0,0,0,.24-.048.116.116,0,0,1,.111,0c.042.019.07.014.068-.012s.04-.033.1-.025.1,0,.111-.009a1.375,1.375,0,0,1,.33-.08,14.568,14.568,0,0,0,3.488-1.186,13.773,13.773,0,0,0,5.212-4.849c.146-.225.284-.45.309-.505C16.471.69,16.469.685,16.315.642Z" transform="translate(0 20.131)" fill="url(#linear-gradient-7)"/>
        <path id="Path_43306" data-name="Path 43306" d="M7.118,16.257c.015-.052.085-.332.155-.621Q9.513,6.411.759.03C.672-.03.678-.044.577.42.523.673.479.8.443.815c-.081.031-.116.146-.21.7A19.05,19.05,0,0,0,.142,6.806,12.913,12.913,0,0,0,5.81,15.89c.339.239.59.347.626.266a1.518,1.518,0,0,1,.54.278C7.051,16.488,7.065,16.474,7.118,16.257Z" transform="translate(11.029 0)" fill="url(#linear-gradient-8)"/>
        <path id="Path_43307" data-name="Path 43307" d="M15.947,7.179a14.355,14.355,0,0,0-4.354-4.933A13.284,13.284,0,0,0,7.427.429,18.438,18.438,0,0,0,.584.227,4.378,4.378,0,0,0,0,.329.435.435,0,0,0,.074.492c.05.077.075.143.063.15a.341.341,0,0,0-.017.17c.013.216.067.312.609,1.041.24.321,1.169,1.425,1.431,1.7a14.251,14.251,0,0,0,5.415,3.7c.437.17.862.321.947.338s.274.063.419.1a9.273,9.273,0,0,0,1.1.217,1.221,1.221,0,0,1,.272.058.345.345,0,0,0,.181.018.33.33,0,0,1,.182.018.346.346,0,0,0,.182.018.29.29,0,0,1,.164.009.316.316,0,0,0,.164.01.269.269,0,0,1,.146,0,1.368,1.368,0,0,0,.5,0,.061.061,0,0,1,.059-.009c.06.044.289.07.3.035s.063-.027.12-.006a.224.224,0,0,0,.16,0,.205.205,0,0,1,.157.007c.056.025.1.023.115-.012s.055-.039.108-.015a.215.215,0,0,0,.155.01.408.408,0,0,1,.157-.014c.048,0,.1-.008.1-.025s.046-.017.081,0a.249.249,0,0,0,.156,0,.247.247,0,0,1,.142-.017.165.165,0,0,0,.112-.026.16.16,0,0,1,.144,0c.049.022.087.022.081,0s.038-.038.086-.033a.308.308,0,0,0,.147-.019.19.19,0,0,1,.109-.018.581.581,0,0,0,.181-.029.5.5,0,0,1,.231-.019c.057.013.1.008.1-.013-.007-.041.15-.063.174-.023.006.015.011.013,0,0a2.524,2.524,0,0,1,.53-.151,4.148,4.148,0,0,0,.548-.145A1.769,1.769,0,0,0,15.947,7.179Z" transform="translate(0.408 10.456)" fill="url(#linear-gradient-9)"/>
      </g>
    </g>
    <g id="Group_4062" data-name="Group 4062">
      <g id="Group_4055" data-name="Group 4055" transform="translate(185 43)">
        <path id="Path_43382" data-name="Path 43382" d="M7.667,1l5.167,2.991V9.974L7.667,12.965,2.5,9.974V3.991ZM4.128,4.305,7.667,6.354l3.538-2.049L7.667,2.257Zm-.541.944v4.1l3.535,2.047V7.3Zm4.623,6.144,3.535-2.047v-4.1L8.211,7.3Z" transform="translate(-2.5 2.018)" fill="#fff"/>
        <path id="Path_51002" data-name="Path 51002" d="M3.5-3.8A5.29,5.29,0,0,1,1.4-4.825a1.954,1.954,0,0,1-.659-1.5,2.064,2.064,0,0,1,.806-1.667,3.2,3.2,0,0,1,2.095-.659,3.5,3.5,0,0,1,1.567.34,2.577,2.577,0,0,1,1.066.938A2.4,2.4,0,0,1,6.65-6.064H5.52A1.552,1.552,0,0,0,5.027-7.28a2.006,2.006,0,0,0-1.389-.442,2.052,2.052,0,0,0-1.3.366A1.221,1.221,0,0,0,1.875-6.34a1.1,1.1,0,0,0,.442.882A4.343,4.343,0,0,0,3.823-4.8a6.973,6.973,0,0,1,1.664.659,2.525,2.525,0,0,1,.891.841,2.146,2.146,0,0,1,.29,1.131A1.993,1.993,0,0,1,5.859-.507,3.448,3.448,0,0,1,3.7.117,4.01,4.01,0,0,1,2.057-.22,2.761,2.761,0,0,1,.882-1.143a2.252,2.252,0,0,1-.413-1.33H1.6a1.469,1.469,0,0,0,.571,1.222A2.4,2.4,0,0,0,3.7-.8a2.211,2.211,0,0,0,1.365-.363,1.18,1.18,0,0,0,.475-.99,1.158,1.158,0,0,0-.439-.97A5.066,5.066,0,0,0,3.5-3.8ZM11.854,0A2.277,2.277,0,0,1,11.7-.668,2.419,2.419,0,0,1,9.9.117a2.238,2.238,0,0,1-1.538-.53,1.716,1.716,0,0,1-.6-1.345A1.792,1.792,0,0,1,8.511-3.3a3.55,3.55,0,0,1,2.118-.548h1.055v-.5a1.217,1.217,0,0,0-.34-.905,1.366,1.366,0,0,0-1-.337,1.581,1.581,0,0,0-.973.293.863.863,0,0,0-.393.709H7.887A1.5,1.5,0,0,1,8.224-5.5a2.3,2.3,0,0,1,.914-.7,3.075,3.075,0,0,1,1.269-.258,2.506,2.506,0,0,1,1.717.548A1.976,1.976,0,0,1,12.768-4.4v2.918A3.567,3.567,0,0,0,12.99-.094V0Zm-1.8-.826a1.905,1.905,0,0,0,.967-.264,1.6,1.6,0,0,0,.662-.686v-1.3h-.85q-1.992,0-1.992,1.166a.987.987,0,0,0,.34.8A1.306,1.306,0,0,0,10.055-.826ZM15.492-6.34l.035.8a2.31,2.31,0,0,1,1.9-.914q2.01,0,2.027,2.268V0H18.369V-4.2a1.459,1.459,0,0,0-.313-1.014,1.256,1.256,0,0,0-.958-.328,1.564,1.564,0,0,0-.926.281,1.91,1.91,0,0,0-.621.738V0H14.467V-6.34Zm5.332,3.117a3.714,3.714,0,0,1,.691-2.347,2.186,2.186,0,0,1,1.811-.888A2.2,2.2,0,0,1,25.09-5.7V-9h1.084V0h-1l-.053-.68a2.208,2.208,0,0,1-1.811.8,2.165,2.165,0,0,1-1.8-.9,3.756,3.756,0,0,1-.694-2.355Zm1.084.123a2.812,2.812,0,0,0,.445,1.688,1.44,1.44,0,0,0,1.23.609,1.581,1.581,0,0,0,1.506-.926V-4.641a1.593,1.593,0,0,0-1.494-.9,1.446,1.446,0,0,0-1.242.615A3.1,3.1,0,0,0,21.908-3.1Zm11.314,0a3.77,3.77,0,0,1-.668,2.335,2.134,2.134,0,0,1-1.793.882A2.21,2.21,0,0,1,28.9-.732L28.852,0h-1V-9h1.084v3.357a2.2,2.2,0,0,1,1.811-.814,2.147,2.147,0,0,1,1.813.873,3.883,3.883,0,0,1,.659,2.391Zm-1.084-.123a2.929,2.929,0,0,0-.428-1.711,1.416,1.416,0,0,0-1.23-.6,1.591,1.591,0,0,0-1.541,1V-1.8a1.636,1.636,0,0,0,1.553,1,1.408,1.408,0,0,0,1.213-.6A3.115,3.115,0,0,0,32.139-3.223ZM34.3-3.229A3.745,3.745,0,0,1,34.667-4.9a2.732,2.732,0,0,1,1.02-1.148,2.775,2.775,0,0,1,1.491-.4,2.674,2.674,0,0,1,2.095.9,3.449,3.449,0,0,1,.8,2.385V-3.1a3.777,3.777,0,0,1-.354,1.661A2.692,2.692,0,0,1,38.7-.293a2.807,2.807,0,0,1-1.515.41,2.667,2.667,0,0,1-2.089-.9,3.432,3.432,0,0,1-.8-2.373Zm1.09.129a2.712,2.712,0,0,0,.489,1.693,1.566,1.566,0,0,0,1.31.639A1.556,1.556,0,0,0,38.5-1.415a2.966,2.966,0,0,0,.486-1.813,2.708,2.708,0,0,0-.5-1.69,1.574,1.574,0,0,0-1.315-.647,1.557,1.557,0,0,0-1.295.639A2.944,2.944,0,0,0,35.391-3.1Zm8.045-.926L44.842-6.34h1.266L44.033-3.205,46.172,0H44.918L43.453-2.373,41.988,0h-1.26l2.139-3.205L40.793-6.34h1.254Z" transform="translate(15 13)" fill="#fff"/>
      </g>
      <line id="Line_22" data-name="Line 22" y2="12" transform="translate(171 45.5)" fill="none" stroke="#234bdb" stroke-width="1"/>
    </g>
  </g>
</svg>
