<svg xmlns="http://www.w3.org/2000/svg" width="28" height="28" viewBox="0 0 28 28">
  <g id="Group_3695" data-name="Group 3695" transform="translate(-1150 -221)">
    <circle id="Ellipse_4" data-name="Ellipse 4" cx="14" cy="14" r="14" transform="translate(1150 221)" fill="#e2e7fb"/>
    <path id="Path_43332" data-name="Path 43332" d="M10.889,7.324V4.556a2.306,2.306,0,0,0-4.612,0V7.324M13.26,6.1l.777,7.38a.691.691,0,0,1-.688.764H3.816a.692.692,0,0,1-.689-.764L3.9,6.1a.692.692,0,0,1,.688-.619h7.979A.692.692,0,0,1,13.26,6.1ZM6.507,7.324a.231.231,0,1,1-.231-.231A.231.231,0,0,1,6.507,7.324Zm4.612,0a.231.231,0,1,1-.231-.231A.231.231,0,0,1,11.119,7.324Z" transform="translate(1155.375 226.75)" fill="none" stroke="#163bc3" stroke-linecap="round" stroke-linejoin="round" stroke-width="1.5"/>
  </g>
</svg>
