<svg xmlns="http://www.w3.org/2000/svg" width="23.081" height="14.368" viewBox="0 0 23.081 14.368">
  <g id="paulplays-logo-micro" transform="translate(-261.087 -330.314)">
    <path id="Path_51081" data-name="Path 51081" d="M521.852,331.471a4.527,4.527,0,0,0-3.4-1.157h-4.855c-.125,0,4.482,2.481,4.482,2.481a1.775,1.775,0,0,1,2.034,2.033,1.885,1.885,0,0,1-.54,1.539,2.294,2.294,0,0,1-1.66.46h-2.875v-3.411h-2.946v11.164h2.946v-5.117h3.622a4.287,4.287,0,0,0,3.237-1.156,4.885,4.885,0,0,0,1.12-3.4A4.661,4.661,0,0,0,521.852,331.471Z" transform="translate(-238.846 0)" fill="#fff"/>
    <path id="Path_51082" data-name="Path 51082" d="M267.883,395.318a6.617,6.617,0,0,0-6.732,5.61c-.484,3.41,1.848,5.61,5.148,5.61a6.784,6.784,0,0,0,4.818-2.112l-2.068-1.694a3.351,3.351,0,0,1-2.552,1.3,2.021,2.021,0,0,1-2.1-1.566l-1.446-.5h1.366s0,0,0,0h7.656l.132-1.037C272.591,397.521,270.963,395.318,267.883,395.318Zm1.1,4.337h-4.356a2.649,2.649,0,0,1,2.618-2.024A1.726,1.726,0,0,1,268.983,399.655Z" transform="translate(0 -61.856)" fill="#fff"/>
  </g>
</svg>
