<svg xmlns="http://www.w3.org/2000/svg" width="29" height="29" viewBox="0 0 29 29">
  <g id="Group_3816" data-name="Group 3816" transform="translate(-1150 -403)">
    <circle id="Ellipse_4" data-name="Ellipse 4" cx="14.5" cy="14.5" r="14.5" transform="translate(1150 403)" fill="#e2e7fb"/>
    <path id="Path_43370" data-name="Path 43370" d="M14.327,2V14.586H13.069V10.181H10.552V5.776A3.776,3.776,0,0,1,14.327,2ZM13.069,3.592A2.529,2.529,0,0,0,11.81,5.776V8.922h1.259Zm-6.293,5.9v5.1H5.517v-5.1A3.148,3.148,0,0,1,3,6.405V2.629H4.259V7.034H5.517V2.629H6.776V7.034H8.034V2.629H9.293V6.405A3.148,3.148,0,0,1,6.776,9.489Z" transform="translate(1156 409)" fill="#1b3cc2"/>
  </g>
</svg>
