<svg xmlns="http://www.w3.org/2000/svg" width="93.662" height="18.872" viewBox="0 0 93.662 18.872">
  <g id="Group_4162" data-name="Group 4162" transform="translate(-71.944 -413.749)">
    <path id="Path_50969" data-name="Path 50969" d="M430.75,417.6h-31.9l25.873-1.275-3.013-2.571Z" transform="translate(-291.143)" fill="#fff"/>
    <path id="Path_50970" data-name="Path 50970" d="M668.22,430.526a4.139,4.139,0,0,0-3.111-1.058H660.67c-.114,0,4.1,2.268,4.1,2.268a1.623,1.623,0,0,1,1.859,1.858,1.724,1.724,0,0,1-.493,1.407,2.1,2.1,0,0,1-1.517.421h-2.628V432.3h-2.693V442.51h2.693v-4.678H665.3a3.919,3.919,0,0,0,2.959-1.057,4.465,4.465,0,0,0,1.024-3.106A4.261,4.261,0,0,0,668.22,430.526Z" transform="translate(-523.092 -13.999)" fill="#fff"/>
    <path id="Path_50971" data-name="Path 50971" d="M353.4,461.76h2.832l-.208,1.472h.038a3.342,3.342,0,0,1,2.888-1.7,3.492,3.492,0,0,1,.925.094l-.359,2.586a4.127,4.127,0,0,0-1.189-.189c-2.152,0-2.586,1.246-2.832,3.077l-.548,3.832h-2.831Z" transform="translate(-249.522 -42.556)" fill="#fff"/>
    <path id="Path_50972" data-name="Path 50972" d="M77.775,461.533A5.678,5.678,0,0,0,72,466.347c-.415,2.926,1.586,4.814,4.417,4.814a5.821,5.821,0,0,0,4.134-1.812l-1.774-1.454a2.876,2.876,0,0,1-2.19,1.114,1.734,1.734,0,0,1-1.8-1.343l-1.241-.426h1.172s0,0,0,0h6.569l.113-.89C81.815,463.423,80.418,461.533,77.775,461.533Zm.944,3.722H74.981a2.273,2.273,0,0,1,2.246-1.737A1.481,1.481,0,0,1,78.719,465.255Z" transform="translate(0 -42.556)" fill="#fff"/>
    <path id="Path_50973" data-name="Path 50973" d="M420.945,461.533a5.678,5.678,0,0,0-5.776,4.814c-.415,2.926,1.586,4.814,4.417,4.814a5.821,5.821,0,0,0,4.134-1.812l-1.775-1.454a2.876,2.876,0,0,1-2.19,1.114,1.732,1.732,0,0,1-1.771-1.244l-1.531-.525h1.418l.022.055a.508.508,0,0,0-.006-.055h6.569l.113-.89C424.985,463.423,423.588,461.533,420.945,461.533Zm.944,3.722h-3.738a2.273,2.273,0,0,1,2.246-1.737A1.481,1.481,0,0,1,421.889,465.255Z" transform="translate(-305.626 -42.556)" fill="#fff"/>
    <path id="Path_50974" data-name="Path 50974" d="M570.265,464.44c.076-.547.68-.755,1.152-.755a1.722,1.722,0,0,1,1.529.774l1.982-1.718a4.068,4.068,0,0,0-3.228-1.208c-1.925,0-3.983.944-4.285,3.1-.491,3.492,4.455,2.246,4.247,3.719-.057.491-.736.661-1.378.661a2.058,2.058,0,0,1-1.792-.919h-2.946c.745.962,1.33,3.071,4.323,3.071,1.963,0,4.323-.68,4.662-3.02C575.022,464.648,570.076,465.8,570.265,464.44Z" transform="translate(-439.6 -42.556)" fill="#fff"/>
    <path id="Path_50975" data-name="Path 50975" d="M498.078,468.09h-1.559l1.595-.447c-.035-2.881-4.476-1.913-4.3-3.2.076-.547.68-.755,1.152-.755a1.722,1.722,0,0,1,1.529.774l1.982-1.718a4.068,4.068,0,0,0-3.228-1.208c-1.925,0-3.983.944-4.285,3.1-.491,3.492,4.455,2.246,4.247,3.719-.057.491-.736.661-1.378.661a2.058,2.058,0,0,1-1.792-.919H489.1c.745.962,1.33,3.071,4.323,3.071,1.963,0,4.323-.68,4.662-3.02,0-.023,0-.043.006-.065Z" transform="translate(-371.516 -42.556)" fill="#fff"/>
    <path id="Path_50976" data-name="Path 50976" d="M689.184,456.678a1.11,1.11,0,0,0-1.214.9l-1.783,6.229-2.049-7.126h-2.921l3.528,10.04c.177.531.12.91-.171,1.15a1.821,1.821,0,0,1-1.195.357l-.658.062-20.837,2.021c.076,0,20.944.006,21.058.019a11.7,11.7,0,0,0,3.054-.4,3.833,3.833,0,0,0,1.138-1.77l3.87-11.482Z" transform="translate(-525.399 -38.232)" fill="#fff"/>
    <path id="Path_50977" data-name="Path 50977" d="M254.6,461.619a4.027,4.027,0,0,0-3.02,1.444h-.038l.17-1.276h-2.6l-1.828,13.079-.051.388h2.823l.736-5.245h.038a3.068,3.068,0,0,0,2.737,1.218c2.605,0,4.53-2.331,4.889-4.88C258.827,463.573,257.317,461.619,254.6,461.619Zm1,4.8a2.528,2.528,0,0,1-2.586,2.322,1.842,1.842,0,0,1-1.944-2.322,2.528,2.528,0,0,1,2.586-2.322A1.842,1.842,0,0,1,255.6,466.423Z" transform="translate(-156.098 -42.633)" fill="#fff"/>
    <path id="Path_50978" data-name="Path 50978" d="M161.367,463.157h-3.108l-2.167,2.516-1.284-2.516h-3.341l2.473,4.286-4.265,4.69-.2.238h3.3l2.728-3.058,1.567,3.058h3.341l-2.831-4.9Z" transform="translate(-69.049 -44.002)" fill="#fff"/>
    <path id="Path_50979" data-name="Path 50979" d="M764.494,457.2a2.436,2.436,0,0,0-1.1-2.124,5.718,5.718,0,0,0-3.187-.721,4.38,4.38,0,0,0-2.921.872,2.922,2.922,0,0,0-1.062,1.935h2.542a1.034,1.034,0,0,1,.607-.569,2.773,2.773,0,0,1,.948-.152,3.9,3.9,0,0,1,1.081.171.719.719,0,0,1,.588.74q0,.759-1.669.986c-.228.026-.43.057-.607.095a2.222,2.222,0,0,1-.455.057,5.354,5.354,0,0,0-2.371.91,2.637,2.637,0,0,0-.93,2.276,2.812,2.812,0,0,0,1.024,2.447,3.974,3.974,0,0,0,2.39.74,4.31,4.31,0,0,0,3.056-1.136v1.088h2.056v-3.849c.006-.079.01-.181.01-.314Zm-2.466,3.339a2.1,2.1,0,0,1-2.276,2.276,1.436,1.436,0,0,1-.986-.3,1.23,1.23,0,0,1-.341-.91,1.544,1.544,0,0,1,.266-.835,2.245,2.245,0,0,1,.987-.493l.872-.19a7.153,7.153,0,0,0,1.48-.493Z" transform="translate(-609.18 -36.162)" fill="#fff"/>
  </g>
</svg>
