<svg xmlns="http://www.w3.org/2000/svg" xmlns:xlink="http://www.w3.org/1999/xlink" width="162.083" height="48.079" viewBox="0 0 162.083 48.079">
  <defs>
    <linearGradient id="linear-gradient" x1="0.055" y1="-1.324" x2="0.213" y2="2.75" gradientUnits="objectBoundingBox">
      <stop offset="0" stop-color="#ff9173"/>
      <stop offset="0.999" stop-color="#ed3979"/>
    </linearGradient>
    <linearGradient id="linear-gradient-2" x1="1.527" y1="-0.891" x2="1.857" y2="1.103" xlink:href="#linear-gradient"/>
    <linearGradient id="linear-gradient-3" x1="-0.601" y1="0.091" x2="-0.445" y2="4.393" xlink:href="#linear-gradient"/>
    <linearGradient id="linear-gradient-4" x1="2.654" y1="-0.898" x2="2.966" y2="1.135" xlink:href="#linear-gradient"/>
    <linearGradient id="linear-gradient-5" x1="-1.794" y1="0.843" x2="-1.483" y2="2.874" xlink:href="#linear-gradient"/>
    <linearGradient id="linear-gradient-6" x1="0.365" y1="-1.498" x2="0.954" y2="6.181" xlink:href="#linear-gradient"/>
    <linearGradient id="linear-gradient-7" x1="1.519" y1="-1.328" x2="1.674" y2="2.962" xlink:href="#linear-gradient"/>
    <linearGradient id="linear-gradient-8" x1="-0.68" y1="0.855" x2="-0.35" y2="2.849" xlink:href="#linear-gradient"/>
    <linearGradient id="linear-gradient-9" x1="0.862" y1="0.203" x2="1.02" y2="4.264" xlink:href="#linear-gradient"/>
  </defs>
  <g id="Group_3950" data-name="Group 3950" transform="translate(-661.378 -143.765)">
    <g id="Group_3947" data-name="Group 3947" transform="translate(607.291 131.605)">
      <path id="Path_43325" data-name="Path 43325" d="M7.3.456A8.7,8.7,0,0,0,13-2.052h.152L13.528,0h3.648V-11.058c0-5.206-2.356-8.094-6.992-8.094A14.6,14.6,0,0,0,2.508-16.72l1.6,2.964A10.516,10.516,0,0,1,9.348-15.5c2.508,0,3.268,1.6,3.344,3.5C5.016-11.172,1.748-9.12,1.748-5.016A5.246,5.246,0,0,0,7.3.456ZM8.664-3.116c-1.52,0-2.584-.608-2.584-2.2,0-1.9,1.52-3.04,6.612-3.648v3.952A5.568,5.568,0,0,1,8.664-3.116ZM25.422.456A5.327,5.327,0,0,0,27.778.038l-.532-3.306a2.344,2.344,0,0,1-.684.076c-.456,0-.95-.38-.95-1.482V-26.828H21.09V-4.9C21.09-1.6,22.268.456,25.422.456Zm11.4,0a9.467,9.467,0,0,0,3.876-.8L39.9-3.5a5.028,5.028,0,0,1-1.938.38c-1.748,0-2.622-1.064-2.622-3.23v-8.778h4.75V-18.7H35.34V-24.51H31.616L31.084-18.7l-2.888.228v3.344h2.66v8.778C30.856-2.28,32.452.456,36.822.456ZM43.13,0h4.522V-9.082h3.5c5.358,0,9.5-2.508,9.5-8.056,0-5.776-4.142-7.714-9.652-7.714H43.13Zm4.522-12.692v-8.55h3c3.61,0,5.51,1.064,5.51,4.1,0,3-1.71,4.446-5.358,4.446ZM66.728.456a8.7,8.7,0,0,0,5.7-2.508h.152L72.96,0h3.648V-11.058c0-5.206-2.356-8.094-6.992-8.094A14.6,14.6,0,0,0,61.94-16.72l1.6,2.964A10.516,10.516,0,0,1,68.78-15.5c2.508,0,3.268,1.6,3.344,3.5C64.448-11.172,61.18-9.12,61.18-5.016A5.246,5.246,0,0,0,66.728.456ZM68.1-3.116c-1.52,0-2.584-.608-2.584-2.2,0-1.9,1.52-3.04,6.612-3.648v3.952A5.568,5.568,0,0,1,68.1-3.116ZM81.852,7.638c4.1,0,6.08-2.584,7.638-6.84L96.216-18.7H91.884L89.148-9.614c-.456,1.71-.95,3.534-1.406,5.282H87.59c-.532-1.786-1.064-3.648-1.634-5.282L82.8-18.7h-4.56L85.576-.266,85.234.912c-.608,1.824-1.748,3.116-3.686,3.116a4.249,4.249,0,0,1-1.292-.19L79.382,7.22A6.7,6.7,0,0,0,81.852,7.638Z" transform="translate(107.871 44.791)" fill="#fff"/>
      <path id="Path_43326" data-name="Path 43326" d="M6.216-8.82a5.383,5.383,0,0,0,5.432-5.572,5.391,5.391,0,0,0-5.432-5.6,5.391,5.391,0,0,0-5.432,5.6A5.383,5.383,0,0,0,6.216-8.82Zm0-1.2a4.064,4.064,0,0,1-4.088-4.368,4.073,4.073,0,0,1,4.088-4.4,4.073,4.073,0,0,1,4.088,4.4A4.064,4.064,0,0,1,6.216-10.024ZM4.06-11.676h1.4v-1.792h.952l.924,1.792H8.848L7.616-13.888a1.64,1.64,0,0,0,1.008-1.54c0-1.288-.98-1.82-2.24-1.82H4.06ZM5.46-14.5v-1.652h.672c.7,0,.98.336.98.812,0,.5-.364.84-1.008.84Z" transform="translate(204.522 58.062)" fill="#fff" opacity="0.9"/>
      <g id="_1420198" data-name=" 1420198" transform="matrix(0.914, -0.407, 0.407, 0.914, 48.709, 24.929)">
        <path id="Path_43299" data-name="Path 43299" d="M16.16,7.209C13.629,3.586,10.6,1.284,7.234.418A14.3,14.3,0,0,0,1.2.239C.715.323.166.434.01.481-.013.487.005.574.049.667A.346.346,0,0,1,.084.94a.449.449,0,0,0,.009.251,13.51,13.51,0,0,0,2,2.773,12.939,12.939,0,0,0,3.71,2.8,19.233,19.233,0,0,0,2.217.888c.125.03.4.1.615.157a14.778,14.778,0,0,0,1.542.3,1.437,1.437,0,0,1,.252.047.637.637,0,0,0,.2.027c.076,0,.273.022.43.04s.328.033.376.033A2.083,2.083,0,0,1,12,8.289a.282.282,0,0,0,.151,0,.3.3,0,0,1,.154,0,1.115,1.115,0,0,0,.32.012,1.472,1.472,0,0,1,.305.006.168.168,0,0,0,.111-.016.19.19,0,0,1,.136,0,.192.192,0,0,0,.135,0,.539.539,0,0,1,.2,0c.07.018.134.012.142-.006s.036-.023.061-.012a.938.938,0,0,0,.452-.041.158.158,0,0,1,.142,0,.134.134,0,0,0,.133-.006c.028-.024.056-.027.07-.012s.063.015.118-.012A.256.256,0,0,1,14.81,8.2a.125.125,0,0,0,.125-.009.115.115,0,0,1,.116-.014.54.54,0,0,0,.241,0c.095-.018.16-.039.142-.047a4.054,4.054,0,0,1,.865-.149,3.387,3.387,0,0,0,.341-.065C16.64,7.9,16.424,7.591,16.16,7.209Z" transform="translate(27.52 23.914)" fill="url(#linear-gradient)"/>
        <path id="Path_43300" data-name="Path 43300" d="M7.5,16.857c.9-4.641.544-8.238-1.139-11.408A13.749,13.749,0,0,0,4.927,3.365,13.473,13.473,0,0,0,2.444,1C2,.668.989-.012.957,0a1.712,1.712,0,0,0-.1.292A2.982,2.982,0,0,1,.639.8,4.073,4.073,0,0,0,.274,2.117,12.991,12.991,0,0,0,1.65,11.11a13.555,13.555,0,0,0,1.642,2.354A19.524,19.524,0,0,0,6.086,16.2c.4.322.5.375.733.409a1.42,1.42,0,0,1,.6.347C7.469,17,7.476,16.993,7.5,16.857Z" transform="translate(23.457 27.483)" fill="url(#linear-gradient-2)"/>
        <path id="Path_43301" data-name="Path 43301" d="M16.922.5C16.846.47,15.916.3,15.424.232a16.715,16.715,0,0,0-8.57.732A13.668,13.668,0,0,0,.419,6.3a7,7,0,0,0-.384.615c-.055.122-.05.142.047.216a2.024,2.024,0,0,0,.8.277c.217.049.477.108.581.137a2.959,2.959,0,0,0,.32.06c.074.011.278.037.456.068s.382.058.448.065a2.3,2.3,0,0,1,.262.034.519.519,0,0,0,.19,0,.253.253,0,0,1,.155.021.293.293,0,0,0,.18.015.246.246,0,0,1,.162.007.357.357,0,0,0,.184.017.283.283,0,0,1,.147,0,.78.78,0,0,0,.232.016,1,1,0,0,1,.224.013.044.044,0,0,0,.06-.016c.008-.018.045-.023.081-.007a.462.462,0,0,0,.2,0,.479.479,0,0,1,.2,0,.112.112,0,0,0,.107-.017.138.138,0,0,1,.137,0,.136.136,0,0,0,.136,0,.114.114,0,0,1,.111-.015.114.114,0,0,0,.111-.015A.11.11,0,0,1,5.68,7.78a.243.243,0,0,0,.151,0,.193.193,0,0,1,.116-.013A.04.04,0,0,0,6,7.754c.014-.033.159-.034.234-.009a.089.089,0,0,0,.071-.011,2.217,2.217,0,0,1,.323-.073,13.772,13.772,0,0,0,5.282-2.1A19.95,19.95,0,0,0,16.673.93C16.917.6,16.962.521,16.922.5Z" transform="translate(27.576 13.045)" fill="url(#linear-gradient-3)"/>
        <path id="Path_43302" data-name="Path 43302" d="M7.729,8.252A14.131,14.131,0,0,0,8.144.973C8.082.624,8.009.262,7.982.166L7.93,0,7.447.276A14.74,14.74,0,0,0,2.48,4.764c-.233.348-.693,1.128-.856,1.454a.537.537,0,0,1-.136.208A6.051,6.051,0,0,0,.947,7.661a17.118,17.118,0,0,0-.827,7.9c.045.476.1.649.255.747a.391.391,0,0,1,.1.2c.018.086.05.152.073.149.064-.008,1.188-.807,1.689-1.2a17.413,17.413,0,0,0,4.542-5.094C6.969,10.014,7.628,8.566,7.729,8.252Z" transform="translate(12.132 27.393)" fill="url(#linear-gradient-4)"/>
        <path id="Path_43303" data-name="Path 43303" d="M7.649,9.023A15.929,15.929,0,0,0,8.461,4.09,24.468,24.468,0,0,0,8.182.347L8.124,0l-.29.192A21.3,21.3,0,0,0,6.085,1.469a17.258,17.258,0,0,0-3.93,4.3c-.134.214-.265.42-.291.458a3.5,3.5,0,0,0-.172.348c-.082.176-.141.268-.156.243a12.735,12.735,0,0,0-.872,2,13.539,13.539,0,0,0-.557,5.892C.244,15.9.342,16.261.565,16.4a.3.3,0,0,1,.1.164l.027.116.115-.053c.062-.033.329-.184.592-.335a14.4,14.4,0,0,0,4.982-4.668,9.81,9.81,0,0,0,.761-1.462C7.4,9.62,7.62,9.106,7.649,9.023Z" transform="translate(23.774 0.374)" fill="url(#linear-gradient-5)"/>
        <path id="Path_43304" data-name="Path 43304" d="M4.453,2.482a2.181,2.181,0,0,0-.132-1.1A2.112,2.112,0,0,0,1.176.35a2.579,2.579,0,0,0-.96,1.122,2.021,2.021,0,0,0,.9,2.714h0l.091.043a1.768,1.768,0,0,0,.77.152.156.156,0,0,1,.14.007.185.185,0,0,0,.129.021,1.349,1.349,0,0,1,.307-.076,2.426,2.426,0,0,0,1.408-.771A2.627,2.627,0,0,0,4.453,2.482Z" transform="translate(19.953 20.045)" fill="url(#linear-gradient-6)"/>
        <path id="Path_43305" data-name="Path 43305" d="M16.838.662A13.619,13.619,0,0,0,5.56,1.928,17.543,17.543,0,0,0,1.635,5.236,17.183,17.183,0,0,0,0,7.29a3.08,3.08,0,0,0,.779.278c.136.017.325.041.427.055s.258.045.351.07.169.032.176.017.085-.005.176.017a.687.687,0,0,0,.216.031,2.247,2.247,0,0,1,.355.028,4.6,4.6,0,0,0,.732.044.811.811,0,0,1,.225.031.316.316,0,0,0,.162.007.293.293,0,0,1,.155,0,.736.736,0,0,0,.23.02,5.355,5.355,0,0,1,.793,0,.039.039,0,0,0,.051-.016c.008-.018.07-.021.138-.008a.222.222,0,0,0,.158-.012.152.152,0,0,1,.131,0,.291.291,0,0,0,.172,0,.246.246,0,0,1,.151,0,.11.11,0,0,0,.116-.013.12.12,0,0,1,.116-.013.11.11,0,0,0,.116-.013A.113.113,0,0,1,6.035,7.8a.24.24,0,0,0,.147,0A.2.2,0,0,1,6.3,7.791a.2.2,0,0,0,.1-.006,1.742,1.742,0,0,1,.279-.041.555.555,0,0,0,.248-.05.12.12,0,0,1,.115-.005c.044.019.072.014.07-.012s.041-.034.1-.026.108,0,.114-.01a1.419,1.419,0,0,1,.341-.083,15.035,15.035,0,0,0,3.6-1.224,14.214,14.214,0,0,0,5.379-5c.151-.232.293-.464.319-.522C17,.712,17,.707,16.838.662Z" transform="translate(0 23.594)" fill="url(#linear-gradient-7)"/>
        <path id="Path_43306" data-name="Path 43306" d="M7.346,16.778c.015-.054.087-.343.16-.641Q9.818,6.617.783.031C.693-.031.7-.045.6.433.539.695.494.826.457.841.374.873.338.992.241,1.56A19.661,19.661,0,0,0,.147,7.025,13.327,13.327,0,0,0,6,16.4c.35.247.609.358.646.275a1.567,1.567,0,0,1,.558.287C7.277,17.017,7.292,17,7.346,16.778Z" transform="translate(12.93 0)" fill="url(#linear-gradient-8)"/>
        <path id="Path_43307" data-name="Path 43307" d="M16.458,7.409a14.815,14.815,0,0,0-4.494-5.091A13.709,13.709,0,0,0,7.665.443,19.029,19.029,0,0,0,.6.235,4.518,4.518,0,0,0,0,.34.449.449,0,0,0,.076.508C.128.588.154.656.142.663A.352.352,0,0,0,.125.839c.014.223.069.322.628,1.074C1,2.244,1.96,3.384,2.23,3.664A14.708,14.708,0,0,0,7.819,7.479c.451.175.89.331.977.349s.283.065.432.1a9.57,9.57,0,0,0,1.137.224,1.26,1.26,0,0,1,.281.06.356.356,0,0,0,.187.018.34.34,0,0,1,.187.018.357.357,0,0,0,.187.018.3.3,0,0,1,.169.01.326.326,0,0,0,.169.01.278.278,0,0,1,.151,0,1.412,1.412,0,0,0,.519.005.063.063,0,0,1,.061-.01c.062.045.3.072.314.036.01-.021.065-.028.124-.006a.231.231,0,0,0,.165,0,.212.212,0,0,1,.162.007c.058.026.1.024.118-.012s.057-.04.111-.015a.222.222,0,0,0,.16.01.421.421,0,0,1,.162-.014c.05.005.1-.008.107-.026s.047-.018.083,0a.257.257,0,0,0,.161,0,.255.255,0,0,1,.146-.017.171.171,0,0,0,.116-.026.165.165,0,0,1,.148,0c.051.023.09.023.083,0s.039-.039.088-.034a.318.318,0,0,0,.152-.019.2.2,0,0,1,.113-.019.6.6,0,0,0,.187-.03.519.519,0,0,1,.239-.02c.059.013.106.008.106-.014-.007-.042.155-.065.18-.024.006.015.011.014.005,0a2.605,2.605,0,0,1,.547-.156,4.281,4.281,0,0,0,.565-.149A1.826,1.826,0,0,0,16.458,7.409Z" transform="translate(0.421 12.275)" fill="url(#linear-gradient-9)"/>
      </g>
    </g>
  </g>
</svg>
