<svg width="9" height="8" viewBox="0 0 9 8" fill="none" xmlns="http://www.w3.org/2000/svg">
<path d="M6.45426 0.263428H2.71028C1.67594 0.263428 0.834473 1.10514 0.834473 2.13979V5.566C0.834473 6.60065 1.67594 7.44236 2.71028 7.44236H6.45426C7.48861 7.44236 8.33007 6.60065 8.33007 5.566V2.13979C8.33007 1.10514 7.48861 0.263428 6.45426 0.263428ZM1.4962 2.13979C1.4962 1.47023 2.04092 0.925348 2.71028 0.925348H6.45426C7.12362 0.925348 7.66835 1.47023 7.66835 2.13979V5.566C7.66835 6.23555 7.12362 6.78044 6.45426 6.78044H2.71028C2.04092 6.78044 1.4962 6.23555 1.4962 5.566V2.13979Z" fill="white"/>
<path d="M4.58222 5.59772C5.54408 5.59772 6.32704 4.81495 6.32704 3.85239C6.32704 2.88983 5.5445 2.10706 4.58222 2.10706C3.61994 2.10706 2.8374 2.88983 2.8374 3.85239C2.8374 4.81495 3.61994 5.59772 4.58222 5.59772ZM4.58222 2.7694C5.17951 2.7694 5.66532 3.25534 5.66532 3.85281C5.66532 4.45028 5.17951 4.93622 4.58222 4.93622C3.98493 4.93622 3.49913 4.45028 3.49913 3.85281C3.49913 3.25534 3.98493 2.7694 4.58222 2.7694Z" fill="white"/>
<path d="M6.48843 2.389C6.74744 2.389 6.95855 2.17825 6.95855 1.91874C6.95855 1.65923 6.74786 1.44849 6.48843 1.44849C6.22899 1.44849 6.01831 1.65923 6.01831 1.91874C6.01831 2.17825 6.22899 2.389 6.48843 2.389Z" fill="white"/>
</svg>
