<svg width="10" height="9" viewBox="0 0 10 9" fill="none" xmlns="http://www.w3.org/2000/svg">
<path d="M9.15999 3.99478C9.03878 3.44484 8.53656 3.08826 8.03843 3.19825C7.86864 3.2356 7.72236 3.32308 7.60678 3.44279C6.9363 2.95577 6.02085 2.63399 4.9985 2.57311L5.48794 0.534984L6.93988 0.882347C6.96391 1.27933 7.29276 1.59395 7.69577 1.59395C8.09877 1.59395 8.45371 1.25426 8.45371 0.835792C8.45371 0.417322 8.11411 0.0776367 7.69577 0.0776367C7.39249 0.0776367 7.13116 0.256179 7.01046 0.514014L5.43526 0.136981C5.3115 0.10731 5.18722 0.183533 5.15705 0.307335L4.61544 2.56288C3.47496 2.56902 2.44597 2.89898 1.70747 3.42744C1.67116 3.39368 1.6323 3.36248 1.58985 3.33485C1.15974 3.06014 0.565456 3.2223 0.262691 3.69653C-0.0400733 4.17127 0.0627235 4.77852 0.492833 5.05324C0.518405 5.06961 0.544489 5.08393 0.571083 5.09724C0.553695 5.20313 0.544488 5.31108 0.544488 5.42004C0.544488 6.99826 2.38103 8.27771 4.64665 8.27771C6.91227 8.27771 8.7488 6.99826 8.7488 5.42004C8.7488 5.30954 8.73908 5.20057 8.72118 5.09365C9.07049 4.89056 9.26074 4.44804 9.16101 3.99478H9.15999ZM2.54315 4.75805C2.54315 4.39841 2.83466 4.10682 3.19419 4.10682C3.55373 4.10682 3.84525 4.39841 3.84525 4.75805C3.84525 5.11769 3.55373 5.4093 3.19419 5.4093C2.83466 5.4093 2.54315 5.11769 2.54315 4.75805ZM6.15894 6.81409C5.95897 6.9957 5.40663 7.41929 4.59806 7.42696C4.5909 7.42696 4.58322 7.42696 4.57606 7.42696C3.75676 7.42696 3.19726 6.99928 2.9932 6.81409C2.92774 6.75475 2.92314 6.65345 2.98246 6.58848C3.04179 6.523 3.14305 6.5184 3.208 6.57774C3.38547 6.7394 3.87593 7.11439 4.59499 7.10774C5.29411 7.10109 5.77127 6.7353 5.94413 6.57825C6.00959 6.51891 6.11035 6.52351 6.16968 6.58899C6.229 6.65447 6.2244 6.75526 6.15894 6.81461V6.81409ZM6.08018 5.4093C5.72064 5.4093 5.42913 5.11769 5.42913 4.75805C5.42913 4.39841 5.72064 4.10682 6.08018 4.10682C6.43971 4.10682 6.73122 4.39841 6.73122 4.75805C6.73122 5.11769 6.43971 5.4093 6.08018 5.4093Z" fill="white"/>
</svg>
