<svg width="8" height="9" viewBox="0 0 8 9" fill="none" xmlns="http://www.w3.org/2000/svg">
<path d="M7.89393 2.52264V3.94964C7.64461 3.92528 7.32065 3.86863 6.96229 3.73731C6.49435 3.56575 6.14604 3.33118 5.91789 3.14956V6.03375L5.91207 6.02475C5.91577 6.08194 5.91789 6.14018 5.91789 6.19896C5.91789 7.63126 4.7528 8.79722 3.3204 8.79722C1.88799 8.79722 0.7229 7.63126 0.7229 6.19896C0.7229 4.76666 1.88799 3.60017 3.3204 3.60017C3.46067 3.60017 3.5983 3.61129 3.73276 3.633V5.03935C3.6036 4.99328 3.46491 4.9684 3.3204 4.9684C2.6423 4.9684 2.0902 5.52014 2.0902 6.19896C2.0902 6.87778 2.6423 7.42952 3.3204 7.42952C3.99849 7.42952 4.55059 6.87725 4.55059 6.19896C4.55059 6.17354 4.55006 6.14813 4.54848 6.12271V0.517944H5.974C5.97929 0.63867 5.98406 0.760458 5.98935 0.881184C5.99888 1.11893 6.08357 1.34714 6.23126 1.53406C6.40436 1.7538 6.66003 2.00902 7.01893 2.21288C7.35506 2.40297 7.67055 2.48504 7.89393 2.52369V2.52264Z" fill="white"/>
</svg>
